<?xml version="1.0" standalone="no"?>
<!DOCTYPE svg PUBLIC "-//W3C//DTD SVG 20010904//EN"
 "http://www.w3.org/TR/2001/REC-SVG-20010904/DTD/svg10.dtd">
<svg version="1.0" xmlns="http://www.w3.org/2000/svg"
 width="1044.000000pt" height="256.000000pt" viewBox="0 0 1044.000000 256.000000"
 preserveAspectRatio="xMidYMid meet">
<metadata>
Created by potrace 1.15, written by Peter Selinger 2001-2017
</metadata>
<g transform="translate(0.000000,256.000000) scale(0.100000,-0.100000)"
fill="#000000" stroke="none">
<path d="M3085 1796 c-230 -45 -585 -142 -1270 -346 -304 -91 -492 -143 -648
-180 -347 -83 -564 -93 -629 -28 -19 19 -20 30 -3 85 10 31 -19 42 -45 18 -49
-44 -10 -156 74 -213 83 -55 140 -67 321 -66 244 2 386 33 1236 274 289 82
604 170 700 194 321 83 609 133 609 107 0 -22 -100 -83 -315 -192 -258 -131
-394 -218 -487 -311 -53 -52 -68 -74 -68 -96 0 -98 131 -85 544 54 283 95 504
154 578 154 l49 0 -44 -62 c-77 -111 -85 -157 -39 -210 24 -26 36 -31 73 -31
45 0 76 12 294 111 121 55 306 122 336 122 18 0 16 -4 -12 -39 -40 -51 -42
-102 -5 -139 40 -40 122 -41 331 -3 103 19 206 32 262 33 86 1 92 2 82 19 -24
46 -46 47 -327 18 -112 -11 -213 -19 -225 -17 -19 3 -13 13 51 79 44 46 72 84
72 97 0 26 -33 62 -58 62 -61 0 -381 -107 -582 -195 -193 -84 -206 -89 -215
-76 -3 6 32 35 78 65 106 68 142 112 142 175 0 110 -107 172 -243 141 -24 -6
-228 -83 -453 -171 -399 -156 -553 -207 -586 -194 -37 14 67 67 432 220 341
144 483 228 515 305 30 72 -16 170 -105 225 -46 29 -53 30 -174 32 -98 2 -153
-3 -246 -21z"/>
<path d="M7006 1796 c-53 -20 -84 -44 -123 -95 -27 -35 -33 -51 -33 -94 0
-117 97 -183 575 -387 259 -111 351 -157 375 -185 11 -13 8 -15 -15 -15 -57 0
-163 37 -580 202 -479 190 -514 200 -597 159 -57 -28 -88 -74 -88 -133 0 -39
6 -52 40 -91 23 -25 67 -62 99 -82 124 -75 95 -88 -51 -24 -200 88 -257 112
-366 150 -187 64 -298 92 -322 79 -20 -11 -40 -40 -40 -60 0 -7 32 -45 70 -84
39 -40 70 -76 70 -81 0 -9 -93 -3 -333 21 -176 18 -177 18 -204 -2 -49 -37
-41 -44 51 -44 49 0 143 -11 223 -26 224 -42 246 -44 298 -37 35 4 58 14 77
34 37 37 36 75 -3 128 -17 24 -29 45 -26 47 13 14 238 -72 431 -164 171 -81
234 -91 279 -47 47 48 33 121 -44 228 -16 22 -29 44 -29 49 0 29 256 -36 602
-152 332 -112 472 -144 524 -119 23 11 30 22 32 51 3 35 -2 43 -67 107 -97 96
-227 179 -492 316 -214 110 -299 163 -299 187 0 22 282 -27 560 -98 74 -19
338 -94 585 -166 771 -224 1022 -289 1233 -319 111 -15 332 -7 397 15 73 25
139 77 164 128 27 57 27 90 -2 124 -33 37 -50 25 -42 -31 9 -55 -5 -80 -52
-97 -51 -17 -214 -14 -338 7 -147 25 -483 112 -790 205 -755 229 -1090 324
-1330 376 -151 32 -359 42 -419 20z"/>
<path d="M5177 1193 c-46 -12 -65 -138 -27 -186 23 -29 76 -42 114 -27 78 29
66 181 -16 209 -32 11 -41 12 -71 4z"/>
</g>
</svg>
